<mxfile>
    <diagram id="IJIFadzFL46A21G7vNGc" name="Page-1">
        <mxGraphModel dx="1843" dy="1802" grid="1" gridSize="10" guides="1" tooltips="1" connect="1" arrows="1" fold="1" page="1" pageScale="1" pageWidth="850" pageHeight="1100" math="0" shadow="0">
            <root>
                <mxCell id="0"/>
                <mxCell id="1" parent="0"/>
                <mxCell id="4" style="edgeStyle=orthogonalEdgeStyle;rounded=0;orthogonalLoop=1;jettySize=auto;html=1;exitX=0.5;exitY=1;exitDx=0;exitDy=0;" parent="1" source="2" target="3" edge="1">
                    <mxGeometry relative="1" as="geometry"/>
                </mxCell>
                <mxCell id="2" value="程序启动( onLaunch)" style="rounded=1;whiteSpace=wrap;html=1;" parent="1" vertex="1">
                    <mxGeometry x="200" y="40" width="120" height="60" as="geometry"/>
                </mxCell>
                <mxCell id="6" value="True" style="edgeStyle=orthogonalEdgeStyle;rounded=0;orthogonalLoop=1;jettySize=auto;html=1;" parent="1" source="3" edge="1">
                    <mxGeometry relative="1" as="geometry">
                        <mxPoint x="260" y="290" as="targetPoint"/>
                    </mxGeometry>
                </mxCell>
                <mxCell id="23" value="" style="edgeStyle=orthogonalEdgeStyle;rounded=0;orthogonalLoop=1;jettySize=auto;html=1;" parent="1" source="3" target="24" edge="1">
                    <mxGeometry relative="1" as="geometry">
                        <mxPoint x="430" y="182.42857142857144" as="targetPoint"/>
                    </mxGeometry>
                </mxCell>
                <mxCell id="32" value="False" style="edgeLabel;html=1;align=center;verticalAlign=middle;resizable=0;points=[];" vertex="1" connectable="0" parent="23">
                    <mxGeometry x="-0.3391" y="3" relative="1" as="geometry">
                        <mxPoint as="offset"/>
                    </mxGeometry>
                </mxCell>
                <mxCell id="3" value="if( localStorage.token )" style="html=1;whiteSpace=wrap;aspect=fixed;shape=isoRectangle;" parent="1" vertex="1">
                    <mxGeometry x="185" y="140" width="150" height="90" as="geometry"/>
                </mxCell>
                <mxCell id="14" value="True" style="edgeStyle=orthogonalEdgeStyle;rounded=0;orthogonalLoop=1;jettySize=auto;html=1;" parent="1" source="11" target="13" edge="1">
                    <mxGeometry relative="1" as="geometry"/>
                </mxCell>
                <mxCell id="18" value="False" style="edgeStyle=orthogonalEdgeStyle;rounded=0;orthogonalLoop=1;jettySize=auto;html=1;" parent="1" source="11" target="17" edge="1">
                    <mxGeometry relative="1" as="geometry"/>
                </mxCell>
                <mxCell id="11" value="validate token" style="html=1;whiteSpace=wrap;aspect=fixed;shape=isoRectangle;" parent="1" vertex="1">
                    <mxGeometry x="185" y="290" width="150" height="90" as="geometry"/>
                </mxCell>
                <mxCell id="12" value="发请求 checkToken" style="text;html=1;align=center;verticalAlign=middle;resizable=0;points=[];autosize=1;" parent="1" vertex="1">
                    <mxGeometry x="250" y="290" width="120" height="20" as="geometry"/>
                </mxCell>
                <mxCell id="16" value="" style="edgeStyle=orthogonalEdgeStyle;rounded=0;orthogonalLoop=1;jettySize=auto;html=1;" parent="1" source="13" target="15" edge="1">
                    <mxGeometry relative="1" as="geometry"/>
                </mxCell>
                <mxCell id="13" value="vuex:&amp;nbsp;&lt;span style=&quot;background-color: rgb(40 , 44 , 52) ; color: rgb(187 , 187 , 187) ; font-family: &amp;#34;fira code&amp;#34; , &amp;#34;menlo&amp;#34; , &amp;#34;monaco&amp;#34; , &amp;#34;courier new&amp;#34; , monospace , &amp;#34;menlo&amp;#34; , &amp;#34;monaco&amp;#34; , &amp;#34;courier new&amp;#34; , monospace ; font-size: 14px&quot;&gt;hasLogin = true;&lt;/span&gt;&lt;span style=&quot;background-color: rgb(40 , 44 , 52) ; color: rgb(187 , 187 , 187) ; font-family: &amp;#34;fira code&amp;#34; , &amp;#34;menlo&amp;#34; , &amp;#34;monaco&amp;#34; , &amp;#34;courier new&amp;#34; , monospace , &amp;#34;menlo&amp;#34; , &amp;#34;monaco&amp;#34; , &amp;#34;courier new&amp;#34; , monospace ; font-size: 14px&quot;&gt;&lt;br&gt;&lt;/span&gt;" style="rounded=1;whiteSpace=wrap;html=1;" parent="1" vertex="1">
                    <mxGeometry x="130" y="440" width="260" height="50" as="geometry"/>
                </mxCell>
                <mxCell id="15" value="已登录，可以操作&lt;br&gt;并更新 userInfo&lt;br&gt;localStorage:&amp;nbsp;&lt;span style=&quot;background-color: rgb(40 , 44 , 52) ; color: rgb(187 , 187 , 187) ; font-family: &amp;#34;fira code&amp;#34; , &amp;#34;menlo&amp;#34; , &amp;#34;monaco&amp;#34; , &amp;#34;courier new&amp;#34; , monospace , &amp;#34;menlo&amp;#34; , &amp;#34;monaco&amp;#34; , &amp;#34;courier new&amp;#34; , monospace ; font-size: 14px&quot;&gt;userInfo = {...}&lt;/span&gt;" style="rounded=1;whiteSpace=wrap;html=1;" parent="1" vertex="1">
                    <mxGeometry x="140" y="550" width="240" height="80" as="geometry"/>
                </mxCell>
                <mxCell id="21" style="edgeStyle=orthogonalEdgeStyle;rounded=0;orthogonalLoop=1;jettySize=auto;html=1;entryX=0.947;entryY=0.569;entryDx=0;entryDy=0;entryPerimeter=0;" parent="1" source="17" target="3" edge="1">
                    <mxGeometry relative="1" as="geometry">
                        <Array as="points">
                            <mxPoint x="528" y="260"/>
                            <mxPoint x="360" y="260"/>
                            <mxPoint x="360" y="220"/>
                            <mxPoint x="327" y="220"/>
                        </Array>
                    </mxGeometry>
                </mxCell>
                <mxCell id="17" value="vuex:&amp;nbsp;&lt;span style=&quot;background-color: rgb(40 , 44 , 52) ; color: rgb(187 , 187 , 187) ; font-family: &amp;#34;fira code&amp;#34; , &amp;#34;menlo&amp;#34; , &amp;#34;monaco&amp;#34; , &amp;#34;courier new&amp;#34; , monospace , &amp;#34;menlo&amp;#34; , &amp;#34;monaco&amp;#34; , &amp;#34;courier new&amp;#34; , monospace ; font-size: 14px&quot;&gt;hasLogin = false;&lt;br&gt;&lt;/span&gt;&lt;span&gt;localStorage:&amp;nbsp;&lt;/span&gt;&lt;span style=&quot;background-color: rgb(40 , 44 , 52) ; color: rgb(187 , 187 , 187) ; font-family: &amp;#34;fira code&amp;#34; , &amp;#34;menlo&amp;#34; , &amp;#34;monaco&amp;#34; , &amp;#34;courier new&amp;#34; , monospace , &amp;#34;menlo&amp;#34; , &amp;#34;monaco&amp;#34; , &amp;#34;courier new&amp;#34; , monospace ; font-size: 14px&quot;&gt;userInfo = null&lt;/span&gt;&lt;span&gt;&lt;br&gt;&lt;/span&gt;localStorage:&amp;nbsp;&lt;span style=&quot;background-color: rgb(40 , 44 , 52) ; color: rgb(187 , 187 , 187) ; font-family: &amp;#34;fira code&amp;#34; , &amp;#34;menlo&amp;#34; , &amp;#34;monaco&amp;#34; , &amp;#34;courier new&amp;#34; , monospace , &amp;#34;menlo&amp;#34; , &amp;#34;monaco&amp;#34; , &amp;#34;courier new&amp;#34; , monospace ; font-size: 14px&quot;&gt;token =''&lt;/span&gt;&lt;span style=&quot;background-color: rgb(40 , 44 , 52) ; color: rgb(187 , 187 , 187) ; font-family: &amp;#34;fira code&amp;#34; , &amp;#34;menlo&amp;#34; , &amp;#34;monaco&amp;#34; , &amp;#34;courier new&amp;#34; , monospace , &amp;#34;menlo&amp;#34; , &amp;#34;monaco&amp;#34; , &amp;#34;courier new&amp;#34; , monospace ; font-size: 14px&quot;&gt;&lt;br&gt;&lt;/span&gt;" style="rounded=1;whiteSpace=wrap;html=1;" parent="1" vertex="1">
                    <mxGeometry x="410" y="288.75" width="235" height="92.5" as="geometry"/>
                </mxCell>
                <mxCell id="26" value="True" style="edgeStyle=orthogonalEdgeStyle;rounded=0;orthogonalLoop=1;jettySize=auto;html=1;" parent="1" source="24" target="25" edge="1">
                    <mxGeometry relative="1" as="geometry"/>
                </mxCell>
                <mxCell id="28" value="False" style="edgeStyle=orthogonalEdgeStyle;rounded=0;orthogonalLoop=1;jettySize=auto;html=1;" parent="1" source="24" target="27" edge="1">
                    <mxGeometry relative="1" as="geometry"/>
                </mxCell>
                <mxCell id="24" value="调用 uni.login() 获取code&lt;br&gt;&lt;br&gt;if ( 后端返回 res.code === 0 )" style="html=1;whiteSpace=wrap;aspect=fixed;shape=isoRectangle;" parent="1" vertex="1">
                    <mxGeometry x="-170" y="270" width="266.66" height="160" as="geometry"/>
                </mxCell>
                <mxCell id="25" value="vuex:&amp;nbsp;&lt;span style=&quot;background-color: rgb(40 , 44 , 52) ; color: rgb(187 , 187 , 187) ; font-family: &amp;#34;fira code&amp;#34; , &amp;#34;menlo&amp;#34; , &amp;#34;monaco&amp;#34; , &amp;#34;courier new&amp;#34; , monospace , &amp;#34;menlo&amp;#34; , &amp;#34;monaco&amp;#34; , &amp;#34;courier new&amp;#34; , monospace ; font-size: 14px&quot;&gt;hasLogin = true&lt;br&gt;&lt;/span&gt;localStorage:&amp;nbsp;&lt;span style=&quot;background-color: rgb(40 , 44 , 52) ; color: rgb(187 , 187 , 187) ; font-family: &amp;#34;fira code&amp;#34; , &amp;#34;menlo&amp;#34; , &amp;#34;monaco&amp;#34; , &amp;#34;courier new&amp;#34; , monospace , &amp;#34;menlo&amp;#34; , &amp;#34;monaco&amp;#34; , &amp;#34;courier new&amp;#34; , monospace ; font-size: 14px&quot;&gt;userInfo = res.data.userInfo&lt;br&gt;&lt;/span&gt;localStorage:&amp;nbsp;&lt;span style=&quot;background-color: rgb(40 , 44 , 52) ; color: rgb(187 , 187 , 187) ; font-family: &amp;#34;fira code&amp;#34; , &amp;#34;menlo&amp;#34; , &amp;#34;monaco&amp;#34; , &amp;#34;courier new&amp;#34; , monospace , &amp;#34;menlo&amp;#34; , &amp;#34;monaco&amp;#34; , &amp;#34;courier new&amp;#34; , monospace ; font-size: 14px&quot;&gt;token = res.data.token&lt;/span&gt;&lt;span style=&quot;background-color: rgb(40 , 44 , 52) ; color: rgb(187 , 187 , 187) ; font-family: &amp;#34;fira code&amp;#34; , &amp;#34;menlo&amp;#34; , &amp;#34;monaco&amp;#34; , &amp;#34;courier new&amp;#34; , monospace , &amp;#34;menlo&amp;#34; , &amp;#34;monaco&amp;#34; , &amp;#34;courier new&amp;#34; , monospace ; font-size: 14px&quot;&gt;&lt;br&gt;&lt;/span&gt;" style="rounded=1;whiteSpace=wrap;html=1;" parent="1" vertex="1">
                    <mxGeometry x="-320" y="530" width="363" height="90" as="geometry"/>
                </mxCell>
                <mxCell id="27" value="&lt;span&gt;vuex:&amp;nbsp;&lt;/span&gt;&lt;span style=&quot;background-color: rgb(40 , 44 , 52) ; color: rgb(187 , 187 , 187) ; font-family: &amp;#34;fira code&amp;#34; , &amp;#34;menlo&amp;#34; , &amp;#34;monaco&amp;#34; , &amp;#34;courier new&amp;#34; , monospace , &amp;#34;menlo&amp;#34; , &amp;#34;monaco&amp;#34; , &amp;#34;courier new&amp;#34; , monospace ; font-size: 14px&quot;&gt;hasLogin = false&lt;br&gt;&lt;/span&gt;&lt;span&gt;localStorage:&amp;nbsp;&lt;/span&gt;&lt;span style=&quot;background-color: rgb(40 , 44 , 52) ; color: rgb(187 , 187 , 187) ; font-family: &amp;#34;fira code&amp;#34; , &amp;#34;menlo&amp;#34; , &amp;#34;monaco&amp;#34; , &amp;#34;courier new&amp;#34; , monospace , &amp;#34;menlo&amp;#34; , &amp;#34;monaco&amp;#34; , &amp;#34;courier new&amp;#34; , monospace ; font-size: 14px&quot;&gt;userInfo = null&lt;br&gt;&lt;/span&gt;&lt;span&gt;localStorage:&amp;nbsp;&lt;/span&gt;&lt;span style=&quot;background-color: rgb(40 , 44 , 52) ; color: rgb(187 , 187 , 187) ; font-family: &amp;#34;fira code&amp;#34; , &amp;#34;menlo&amp;#34; , &amp;#34;monaco&amp;#34; , &amp;#34;courier new&amp;#34; , monospace , &amp;#34;menlo&amp;#34; , &amp;#34;monaco&amp;#34; , &amp;#34;courier new&amp;#34; , monospace ; font-size: 14px&quot;&gt;token = ''&lt;/span&gt;" style="rounded=1;whiteSpace=wrap;html=1;" parent="1" vertex="1">
                    <mxGeometry x="-500" y="304.38" width="230" height="91.25" as="geometry"/>
                </mxCell>
                <mxCell id="30" value="通过 vuex 的 hasLogin 是否为 true&lt;br&gt;&lt;br&gt;来判断，是进行后续操作还是跳到登录页" style="shape=ext;double=1;whiteSpace=wrap;html=1;aspect=fixed;" parent="1" vertex="1">
                    <mxGeometry x="540" y="-110" width="350" height="350" as="geometry"/>
                </mxCell>
            </root>
        </mxGraphModel>
    </diagram>
</mxfile>